<svg xmlns="http://www.w3.org/2000/svg" xmlns:xlink="http://www.w3.org/1999/xlink" version="1.1" id="Capa_1" x="0px" y="0px" viewBox="0 0 55.941 55.941" style="enable-background:new 0 0 55.941 55.941;" xml:space="preserve">
<g>
	<path d="M13,29.47c-7.168,0-13,5.832-13,13s5.832,13,13,13s13-5.832,13-13S20.168,29.47,13,29.47z M13,53.47   c-6.065,0-11-4.935-11-11s4.935-11,11-11s11,4.935,11,11S19.065,53.47,13,53.47z" style="fill: rgb(0, 109, 240);"></path>
	<path d="M19,41.47h-5.064v-5c0-0.553-0.448-1-1-1s-1,0.447-1,1v5H7c-0.552,0-1,0.447-1,1s0.448,1,1,1h4.936v5c0,0.553,0.448,1,1,1   s1-0.447,1-1v-5H19c0.552,0,1-0.447,1-1S19.552,41.47,19,41.47z" style="fill: rgb(0, 109, 240);"></path>
	<path d="M55.362,41.375c-2.008-3.796-8.981-7.912-9.287-8.092c-0.896-0.51-1.831-0.78-2.706-0.78c-1.301,0-2.366,0.596-3.011,1.68   c-1.02,1.22-2.285,2.646-2.592,2.867c-2.376,1.612-4.237,1.429-6.294-0.629L19.985,24.934c-2.045-2.045-2.233-3.928-0.631-6.291   c0.224-0.31,1.649-1.575,2.87-2.596c0.778-0.463,1.312-1.15,1.545-1.995c0.307-1.106,0.071-2.463-0.652-3.732   c-0.173-0.296-4.29-7.269-8.085-9.276c-0.708-0.375-1.506-0.573-2.306-0.573c-1.319,0-2.558,0.514-3.49,1.445L6.699,4.453   c-4.014,4.013-5.467,8.562-4.321,13.52c0.704,3.043,2.409,6.231,5.068,9.513C9.179,26.84,11.045,26.47,13,26.47   c8.822,0,16,7.178,16,16c0,1.999-0.385,3.905-1.057,5.671c4.809,4.154,9.408,6.264,13.704,6.264c3.721,0,7.189-1.581,10.307-4.699   l2.537-2.537C56.031,45.63,56.382,43.301,55.362,41.375z" style="fill: rgb(0, 109, 240);"></path>
</g>
<g>
</g>
<g>
</g>
<g>
</g>
<g>
</g>
<g>
</g>
<g>
</g>
<g>
</g>
<g>
</g>
<g>
</g>
<g>
</g>
<g>
</g>
<g>
</g>
<g>
</g>
<g>
</g>
<g>
</g>
</svg>