<svg  xmlns="http://www.w3.org/2000/svg" xmlns:xlink="http://www.w3.org/1999/xlink" version="1.1" id="Capa_1" x="0px" y="0px" viewBox="0 0 306.6 306.6" style="enable-background:new 0 0 306.6 306.6;" xml:space="preserve">
<g>
	<path d="M135.355,173.211c-5.12,4.862-11.831,7.54-18.897,7.54c-15.137,0-27.451-12.314-27.451-27.451s12.314-27.451,27.451-27.451   c6.844,0,13.397,2.532,18.455,7.13c3.679,3.343,9.369,3.072,12.714-0.606c3.343-3.678,3.071-9.37-0.606-12.714   c-8.378-7.615-19.232-11.81-30.563-11.81c-25.062,0-45.451,20.39-45.451,45.451s20.39,45.451,45.451,45.451   c11.699,0,22.813-4.435,31.292-12.487c3.604-3.423,3.752-9.119,0.329-12.724C144.655,169.936,138.959,169.789,135.355,173.211z"></path>
	<path d="M220.396,173.211c-5.121,4.862-11.832,7.54-18.897,7.54c-15.137,0-27.451-12.314-27.451-27.451   s12.314-27.451,27.451-27.451c6.843,0,13.396,2.532,18.455,7.13c3.68,3.345,9.37,3.071,12.714-0.606   c3.343-3.679,3.071-9.371-0.606-12.714c-8.379-7.615-19.233-11.81-30.563-11.81c-25.062,0-45.451,20.39-45.451,45.451   s20.39,45.451,45.451,45.451c11.698,0,22.812-4.435,31.292-12.487c3.604-3.422,3.752-9.119,0.329-12.724   C229.695,169.937,224,169.788,220.396,173.211z"></path>
	<path d="M209.628,47.396H96.972C43.501,47.396,0,90.897,0,144.368v17.863c0,53.471,43.501,96.972,96.972,96.972h112.656   c53.471,0,96.972-43.501,96.972-96.972v-17.863C306.6,90.897,263.099,47.396,209.628,47.396z M288.6,162.231   c0,43.545-35.427,78.972-78.972,78.972H96.972C53.427,241.203,18,205.776,18,162.231v-17.863c0-43.545,35.427-78.972,78.972-78.972   h112.656c43.545,0,78.972,35.427,78.972,78.972V162.231z"></path>
</g>
</svg>