<svg xmlns="http://www.w3.org/2000/svg" xmlns:xlink="http://www.w3.org/1999/xlink" version="1.1" id="Capa_1" x="0px" y="0px" viewBox="0 0 60 60" style="enable-background:new 0 0 60 60;" xml:space="preserve">
<g>
	<path d="M26.199,46.52c-0.546-0.104-1.069,0.24-1.18,0.781c-1.116,5.502-5.445,9.199-10.771,9.199c-5.028,0-9.446-3.3-10.948-8H8   v-2H0v8h2v-3.849C4.169,55.333,8.915,58.5,14.249,58.5c6.304,0,11.42-4.341,12.731-10.801C27.09,47.157,26.74,46.63,26.199,46.52z" style="fill: rgb(0, 109, 240);"></path>
	<path d="M26,38.809c-2.25-4.454-6.704-7.309-11.751-7.309c-6.109,0-11.541,3.997-13.209,9.721c-0.154,0.53,0.15,1.085,0.681,1.239   c0.529,0.155,1.085-0.15,1.239-0.681C4.358,36.982,9.105,33.5,14.249,33.5c4.565,0,8.562,2.766,10.33,7H20v2h8v-8h-2V38.809z" style="fill: rgb(0, 109, 240);"></path>
	<path d="M59.421,42.404c-2.008-3.796-8.981-7.912-9.287-8.092c-0.896-0.51-1.831-0.78-2.706-0.78c-1.301,0-2.366,0.596-3.011,1.68   c-1.02,1.22-2.285,2.646-2.592,2.867c-2.376,1.612-4.237,1.429-6.294-0.629L24.044,25.964c-2.045-2.045-2.233-3.928-0.631-6.291   c0.224-0.31,1.649-1.575,2.87-2.596c0.778-0.463,1.312-1.15,1.545-1.995c0.307-1.106,0.071-2.463-0.652-3.732   c-0.173-0.296-4.29-7.269-8.085-9.276C18.382,1.698,17.585,1.5,16.785,1.5c-1.319,0-2.558,0.514-3.49,1.445l-2.537,2.537   c-4.014,4.013-5.467,8.562-4.321,13.52c0.627,2.713,2.06,5.542,4.243,8.448c1.684-0.604,3.489-0.95,5.377-0.95   c8.822,0,16,7.178,16,16c0,2.029-0.395,3.964-1.087,5.752c5.183,4.763,10.133,7.184,14.736,7.184c3.721,0,7.189-1.581,10.307-4.699   l2.537-2.537C60.09,46.659,60.441,44.33,59.421,42.404z" style="fill: rgb(0, 109, 240);"></path>
</g>
<g>
</g>
<g>
</g>
<g>
</g>
<g>
</g>
<g>
</g>
<g>
</g>
<g>
</g>
<g>
</g>
<g>
</g>
<g>
</g>
<g>
</g>
<g>
</g>
<g>
</g>
<g>
</g>
<g>
</g>
</svg>