<svg xmlns="http://www.w3.org/2000/svg" xmlns:xlink="http://www.w3.org/1999/xlink" version="1.1" id="Capa_1" x="0px" y="0px" viewBox="0 0 57.171 57.171" style="enable-background:new 0 0 57.171 57.171;" xml:space="preserve">
<g>
	<path d="M16.02,29.883c-0.405-0.695-1.128-1.11-1.933-1.11c-0.805,0-1.528,0.415-1.933,1.11L0.309,50.188   c-0.409,0.7-0.412,1.539-0.008,2.242c0.404,0.703,1.129,1.123,1.94,1.123h23.691c0.811,0,1.536-0.42,1.94-1.123   c0.404-0.703,0.401-1.542-0.008-2.242L16.02,29.883z M26.138,51.434c-0.031,0.055-0.092,0.119-0.206,0.119H2.241   c-0.114,0-0.175-0.064-0.206-0.119s-0.056-0.14,0.001-0.238L13.881,30.89c0.057-0.098,0.143-0.118,0.206-0.118   c0.062,0,0.148,0.021,0.205,0.118l11.845,20.306C26.194,51.295,26.169,51.38,26.138,51.434z" style="fill: rgb(255, 218, 68);"></path>
	<path d="M14.171,35.553c-0.552,0-1,0.447-1,1v8c0,0.553,0.448,1,1,1s1-0.447,1-1v-8C15.171,36.001,14.724,35.553,14.171,35.553z" style="fill: rgb(255, 218, 68);"></path>
	<path d="M13.461,47.844c-0.18,0.189-0.29,0.449-0.29,0.71c0,0.26,0.11,0.52,0.29,0.71c0.19,0.18,0.45,0.29,0.71,0.29   c0.26,0,0.52-0.11,0.71-0.29c0.18-0.19,0.29-0.44,0.29-0.71c0-0.261-0.11-0.521-0.29-0.71   C14.511,47.473,13.831,47.473,13.461,47.844z" style="fill: rgb(255, 218, 68);"></path>
	<path d="M56.593,42.522c-2.008-3.796-8.981-7.912-9.287-8.092c-0.896-0.51-1.831-0.78-2.706-0.78c-1.301,0-2.366,0.596-3.011,1.68   c-1.02,1.22-2.285,2.646-2.592,2.867c-2.376,1.612-4.237,1.429-6.294-0.629L21.216,26.082c-2.045-2.045-2.233-3.928-0.631-6.291   c0.224-0.31,1.649-1.575,2.87-2.596c0.778-0.463,1.312-1.15,1.545-1.995c0.307-1.106,0.071-2.463-0.652-3.732   c-0.173-0.296-4.29-7.269-8.085-9.276c-0.708-0.375-1.506-0.573-2.306-0.573c-1.319,0-2.558,0.514-3.49,1.445L7.929,5.6   c-4.014,4.013-5.467,8.562-4.321,13.52c0.741,3.203,2.595,6.566,5.5,10.03l0.455-0.779c0.934-1.603,2.668-2.599,4.524-2.599   s3.59,0.996,4.524,2.6l11.845,20.305c0.399,0.685,0.62,1.44,0.683,2.207c4.098,3.098,8.031,4.67,11.738,4.67   c3.721,0,7.189-1.581,10.307-4.699l2.537-2.537C57.262,46.777,57.612,44.448,56.593,42.522z" style="fill: rgb(255, 218, 68);"></path>
</g>
<g>
</g>
<g>
</g>
<g>
</g>
<g>
</g>
<g>
</g>
<g>
</g>
<g>
</g>
<g>
</g>
<g>
</g>
<g>
</g>
<g>
</g>
<g>
</g>
<g>
</g>
<g>
</g>
<g>
</g>
</svg>