<svg xmlns="http://www.w3.org/2000/svg" xmlns:xlink="http://www.w3.org/1999/xlink" version="1.1" id="Capa_1" x="0px" y="0px" viewBox="0 0 60 60" style="enable-background:new 0 0 60 60;" xml:space="preserve">
<g>
	<path d="M0,58.5h24v-24H0V58.5z M2,36.5h20v20h-9V43.914l4.293,4.293l1.414-1.414L12,40.086l-6.707,6.707l1.414,1.414L11,43.914   V56.5H2V36.5z" style="fill: rgb(145, 220, 90);"></path>
	<path d="M59.421,42.404c-2.008-3.796-8.981-7.912-9.287-8.092c-0.896-0.51-1.831-0.78-2.706-0.78c-1.301,0-2.366,0.596-3.011,1.68   c-1.02,1.22-2.285,2.646-2.592,2.867c-2.376,1.612-4.237,1.429-6.294-0.629L24.044,25.964c-2.045-2.045-2.233-3.928-0.631-6.291   c0.224-0.31,1.649-1.575,2.87-2.596c0.778-0.463,1.312-1.15,1.545-1.995c0.307-1.106,0.071-2.463-0.652-3.732   c-0.173-0.296-4.29-7.269-8.085-9.276C18.382,1.698,17.585,1.5,16.785,1.5c-1.319,0-2.558,0.514-3.49,1.445l-2.537,2.537   c-4.014,4.013-5.467,8.562-4.321,13.52c0.915,3.958,3.53,8.162,7.737,12.498h12.883v7.44c0,1.373,0,5.56,0,5.56l2.367,2.275   c5.746,5.746,11.224,8.66,16.282,8.66c3.721,0,7.189-1.581,10.307-4.699l2.537-2.537C60.09,46.659,60.441,44.33,59.421,42.404z" style="fill: rgb(145, 220, 90);"></path>
</g>
<g>
</g>
<g>
</g>
<g>
</g>
<g>
</g>
<g>
</g>
<g>
</g>
<g>
</g>
<g>
</g>
<g>
</g>
<g>
</g>
<g>
</g>
<g>
</g>
<g>
</g>
<g>
</g>
<g>
</g>
</svg>