<svg xmlns="http://www.w3.org/2000/svg" xmlns:xlink="http://www.w3.org/1999/xlink" version="1.1" id="Capa_1" x="0px" y="0px" viewBox="0 0 55.873 55.873" style="enable-background:new 0 0 55.873 55.873;" xml:space="preserve">
<g>
	<path d="M18.115,36.865l-5.596,8.04L8.57,41.664c-0.427-0.351-1.056-0.288-1.407,0.138c-0.351,0.427-0.289,1.058,0.139,1.407   l4.786,3.929c0.18,0.148,0.404,0.228,0.634,0.228c0.045,0,0.091-0.003,0.137-0.01c0.276-0.038,0.524-0.19,0.684-0.419l6.214-8.929   c0.315-0.453,0.204-1.076-0.25-1.392C19.052,36.297,18.43,36.412,18.115,36.865z" style="fill: rgb(0, 109, 240);"></path>
	<path d="M55.294,41.341c-2.008-3.796-8.981-7.912-9.287-8.092c-0.896-0.51-1.831-0.78-2.706-0.78c-1.301,0-2.366,0.596-3.011,1.68   c-1.02,1.22-2.285,2.646-2.592,2.867c-2.376,1.612-4.237,1.429-6.294-0.629L19.917,24.9c-2.045-2.045-2.233-3.928-0.631-6.291   c0.224-0.31,1.649-1.575,2.87-2.596c0.778-0.463,1.312-1.15,1.545-1.995c0.307-1.106,0.071-2.463-0.652-3.732   c-0.173-0.296-4.29-7.269-8.085-9.276c-0.708-0.375-1.506-0.573-2.306-0.573c-1.319,0-2.558,0.514-3.49,1.445L6.631,4.419   C2.617,8.431,1.163,12.98,2.31,17.938c0.704,3.043,2.409,6.231,5.068,9.513c1.733-0.645,3.599-1.015,5.554-1.015   c8.822,0,16,7.178,16,16c0,1.999-0.385,3.905-1.057,5.671c4.809,4.154,9.408,6.264,13.704,6.264c3.721,0,7.189-1.581,10.307-4.699   l2.537-2.537C55.963,45.596,56.314,43.266,55.294,41.341z" style="fill: rgb(0, 109, 240);"></path>
	<path d="M13,29.436c-7.168,0-13,5.832-13,13s5.832,13,13,13s13-5.832,13-13S20.168,29.436,13,29.436z M13,53.436   c-6.065,0-11-4.935-11-11s4.935-11,11-11s11,4.935,11,11S19.065,53.436,13,53.436z" style="fill: rgb(0, 109, 240);"></path>
</g>
<g>
</g>
<g>
</g>
<g>
</g>
<g>
</g>
<g>
</g>
<g>
</g>
<g>
</g>
<g>
</g>
<g>
</g>
<g>
</g>
<g>
</g>
<g>
</g>
<g>
</g>
<g>
</g>
<g>
</g>
</svg>